#N canvas 285 95 911 620 12;
#X obj 57 147 << 7;
#X obj 77 196 +;
#X obj 78 247 / 16383;
#X obj 78 271 hsl 162 19 0 1 0 0 empty empty empty -2 -10 0 12 #fcfcfc #000000 #000000 0 1;
#X text 129 219 SQUARE X;
#X text 289 217 SQUARE Y;
#X text 300 457 BAR X;
#X obj 257 147 << 7;
#X obj 277 196 +;
#X obj 278 247 / 16383;
#X obj 278 271 hsl 162 19 0 1 0 0 empty empty empty -2 -10 0 12 #fcfcfc #000000 #000000 0 1;
#X obj 257 387 << 7;
#X obj 277 436 +;
#X obj 278 487 / 16383;
#X obj 278 511 hsl 162 19 0 1 0 0 empty empty empty -2 -10 0 12 #fcfcfc #000000 #000000 0 1;
#X obj 457 147 << 7;
#X obj 477 196 +;
#X obj 478 247 / 16383;
#X obj 478 271 hsl 162 19 0 1 0 0 empty empty empty -2 -10 0 12 #fcfcfc #000000 #000000 0 1;
#X obj 447 387 << 7;
#X obj 467 436 +;
#X obj 468 487 / 16383;
#X obj 468 511 hsl 162 19 0 1 0 0 empty empty empty -2 -10 0 12 #fcfcfc #000000 #000000 0 1;
#X text 490 457 BAR SIZE;
#X text 510 217 SQUARE SIZE;
#X text 117 44 If using USB MIDI \, the data is sent as MSB + LSB control changes \, with the LSB CC being the base CC + 32;
#X text 117 74 If using BLE MIDI \, only the MSB is sent.;
#X text 118 -1 Use this patch in combination with the trill-mouse-midi example for Arduino \, ensuring you have enabled at least USB_MIDI or BLE_MIDI.;
#X obj 57 99 ctlin 5 0;
#X obj 95 125 ctlin 37 0;
#X obj 257 99 ctlin 6 0;
#X obj 295 125 ctlin 38 0;
#X obj 457 99 ctlin 7 0;
#X obj 495 125 ctlin 39 0;
#X obj 257 339 ctlin 8 0;
#X obj 295 365 ctlin 40 0;
#X obj 447 339 ctlin 9 0;
#X obj 485 365 ctlin 41 0;
#X connect 0 0 1 0;
#X connect 1 0 2 0;
#X connect 2 0 3 0;
#X connect 7 0 8 0;
#X connect 8 0 9 0;
#X connect 9 0 10 0;
#X connect 11 0 12 0;
#X connect 12 0 13 0;
#X connect 13 0 14 0;
#X connect 15 0 16 0;
#X connect 16 0 17 0;
#X connect 17 0 18 0;
#X connect 19 0 20 0;
#X connect 20 0 21 0;
#X connect 21 0 22 0;
#X connect 28 0 0 0;
#X connect 29 0 1 1;
#X connect 30 0 7 0;
#X connect 31 0 8 1;
#X connect 32 0 15 0;
#X connect 33 0 16 1;
#X connect 34 0 11 0;
#X connect 35 0 12 1;
#X connect 36 0 19 0;
#X connect 37 0 20 1;
